<svg id="svg" version="1.1" xmlns="http://www.w3.org/2000/svg" xmlns:xlink="http://www.w3.org/1999/xlink" width="400" height="400" viewBox="0, 0, 400,400"><g id="svgg"><path id="path0" d="M296.800 17.049 C 296.030 17.142,292.736 17.485,289.480 17.811 C 285.168 18.242,282.236 18.796,278.680 19.848 C 275.996 20.643,272.900 21.512,271.800 21.779 C 270.700 22.045,268.270 23.028,266.400 23.961 C 264.530 24.894,262.460 25.924,261.800 26.250 C 261.140 26.575,260.330 27.017,260.000 27.231 C 259.670 27.445,258.680 27.981,257.800 28.422 C 255.695 29.478,255.034 29.894,252.408 31.816 C 251.193 32.705,249.750 33.717,249.200 34.065 C 245.538 36.381,165.927 115.825,166.089 117.000 C 166.222 117.956,167.129 117.990,172.834 117.256 C 175.925 116.858,180.945 116.592,188.754 116.413 C 189.059 116.406,203.909 101.825,221.754 84.012 C 239.987 65.811,255.777 50.382,257.800 48.789 C 259.780 47.230,261.583 45.718,261.806 45.430 C 262.315 44.770,270.594 40.139,273.800 38.719 C 290.932 31.133,313.934 31.992,330.395 40.833 C 332.820 42.135,334.918 43.200,335.059 43.200 C 337.267 43.200,356.800 62.733,356.800 64.941 C 356.800 65.082,357.865 67.180,359.167 69.605 C 366.902 84.006,368.603 102.364,363.745 119.000 C 361.808 125.633,356.625 136.394,354.417 138.365 C 354.026 138.714,352.262 140.800,350.498 143.000 C 346.220 148.336,264.704 229.890,259.600 233.942 C 257.510 235.601,255.710 237.058,255.600 237.181 C 254.894 237.970,252.149 239.690,249.456 241.033 C 244.258 243.624,243.505 244.038,242.911 244.631 C 242.599 244.944,241.899 245.200,241.355 245.200 C 240.812 245.200,239.700 245.535,238.884 245.944 C 238.068 246.353,236.590 246.812,235.600 246.964 C 234.610 247.116,233.410 247.496,232.933 247.808 C 232.456 248.120,230.386 248.568,228.333 248.803 C 226.280 249.038,222.847 249.497,220.704 249.823 C 217.257 250.347,216.334 250.347,212.704 249.819 C 210.447 249.491,207.000 249.029,205.045 248.793 C 203.090 248.557,201.013 248.117,200.430 247.815 C 199.847 247.514,198.476 247.083,197.385 246.858 C 194.825 246.330,190.770 244.877,190.000 244.213 C 189.670 243.928,188.977 243.566,188.461 243.408 C 187.944 243.250,187.179 242.779,186.761 242.361 C 186.342 241.942,185.651 241.600,185.224 241.600 C 184.797 241.600,184.336 241.420,184.200 241.201 C 184.065 240.981,183.019 240.357,181.877 239.813 C 176.219 237.121,166.723 228.104,161.856 220.800 C 160.610 218.930,159.322 217.048,158.995 216.619 C 158.668 216.189,158.400 215.628,158.400 215.373 C 158.400 215.117,158.065 214.479,157.655 213.954 C 157.245 213.429,156.772 212.550,156.603 212.000 C 156.433 211.450,155.959 210.522,155.548 209.938 C 155.136 209.354,154.800 208.564,154.800 208.182 C 154.800 207.800,154.455 206.748,154.032 205.844 C 153.610 204.940,153.164 203.881,153.041 203.491 C 152.471 201.680,151.563 202.247,145.762 208.038 C 141.696 212.097,140.000 214.059,140.000 214.706 C 140.000 216.350,145.258 226.484,147.935 229.999 C 148.521 230.769,149.665 232.376,150.478 233.570 C 152.900 237.130,159.395 244.030,163.400 247.299 C 169.607 252.365,184.362 260.529,189.173 261.558 C 190.368 261.814,191.538 262.177,191.773 262.365 C 192.008 262.553,193.154 262.908,194.320 263.153 C 195.486 263.399,196.926 263.850,197.520 264.156 C 198.114 264.462,200.580 264.923,203.000 265.180 C 205.420 265.438,208.120 265.815,209.000 266.019 C 212.374 266.802,218.479 266.897,222.600 266.231 C 224.800 265.876,228.468 265.396,230.751 265.166 C 233.403 264.898,235.423 264.467,236.345 263.973 C 237.139 263.548,238.202 263.200,238.707 263.200 C 239.212 263.200,240.295 262.912,241.113 262.559 C 241.931 262.206,243.607 261.675,244.838 261.378 C 246.862 260.890,251.087 258.861,259.600 254.288 C 264.287 251.770,268.544 248.607,273.778 243.752 C 279.641 238.314,361.310 156.452,363.119 154.200 C 364.901 151.980,369.696 145.555,370.288 144.593 C 370.743 143.854,371.572 142.285,373.034 139.400 C 373.368 138.740,373.809 137.930,374.014 137.600 C 375.261 135.590,377.811 129.893,378.221 128.200 C 378.488 127.100,379.345 124.040,380.125 121.400 C 383.465 110.092,383.757 90.781,380.743 80.600 C 380.287 79.060,379.588 76.720,379.189 75.400 C 378.791 74.080,378.337 72.376,378.181 71.613 C 378.026 70.850,377.752 69.950,377.574 69.613 C 377.395 69.276,376.596 67.650,375.799 66.000 C 373.408 61.053,370.931 56.371,370.451 55.891 C 370.203 55.643,370.000 55.198,370.000 54.902 C 370.000 54.607,369.145 53.309,368.100 52.019 C 367.055 50.728,365.674 48.940,365.030 48.045 C 363.591 46.043,353.966 36.435,351.874 34.912 C 351.034 34.300,349.287 32.945,347.991 31.900 C 346.695 30.855,345.393 30.000,345.098 30.000 C 344.802 30.000,344.357 29.797,344.109 29.549 C 343.629 29.069,338.947 26.592,334.000 24.201 C 332.350 23.404,330.724 22.605,330.387 22.426 C 330.050 22.248,329.150 21.974,328.387 21.819 C 327.624 21.663,325.920 21.200,324.600 20.790 C 318.279 18.827,316.212 18.371,311.200 17.830 C 304.834 17.143,298.760 16.814,296.800 17.049 M176.600 133.788 C 174.840 134.094,171.523 134.553,169.230 134.809 C 166.679 135.093,164.507 135.570,163.636 136.037 C 162.853 136.457,161.798 136.800,161.293 136.800 C 160.788 136.800,159.705 137.088,158.887 137.441 C 158.069 137.794,156.393 138.325,155.162 138.622 C 153.138 139.110,148.913 141.139,140.400 145.712 C 131.804 150.330,131.263 150.836,80.376 201.863 C 40.830 241.518,35.439 247.027,34.065 249.200 C 33.717 249.750,32.705 251.193,31.816 252.408 C 29.619 255.409,29.461 255.677,26.966 260.600 C 26.632 261.260,26.191 262.070,25.986 262.400 C 24.739 264.410,22.189 270.107,21.779 271.800 C 21.512 272.900,20.655 275.960,19.875 278.600 C 16.535 289.908,16.243 309.219,19.257 319.400 C 19.713 320.940,20.412 323.280,20.811 324.600 C 21.209 325.920,21.663 327.624,21.819 328.387 C 21.974 329.150,22.248 330.050,22.426 330.387 C 22.605 330.724,23.404 332.350,24.201 334.000 C 26.592 338.947,29.069 343.629,29.549 344.109 C 29.797 344.357,30.000 344.802,30.000 345.098 C 30.000 345.393,30.855 346.695,31.900 347.991 C 32.945 349.287,34.300 351.034,34.912 351.874 C 36.435 353.966,46.043 363.591,48.045 365.030 C 48.940 365.674,50.728 367.055,52.019 368.100 C 53.309 369.145,54.607 370.000,54.902 370.000 C 55.198 370.000,55.643 370.203,55.891 370.451 C 56.371 370.931,61.053 373.408,66.000 375.799 C 67.650 376.596,69.276 377.395,69.613 377.574 C 69.950 377.752,70.850 378.026,71.613 378.181 C 72.376 378.337,74.080 378.791,75.400 379.189 C 76.720 379.588,79.060 380.287,80.600 380.743 C 90.781 383.757,110.092 383.465,121.400 380.125 C 124.040 379.345,127.100 378.488,128.200 378.221 C 129.300 377.955,131.730 376.972,133.600 376.039 C 135.470 375.106,137.540 374.076,138.200 373.750 C 138.860 373.425,139.670 372.983,140.000 372.769 C 140.330 372.555,141.320 372.019,142.200 371.578 C 144.716 370.316,149.046 367.263,154.200 363.116 C 158.536 359.627,234.021 283.761,233.913 283.000 C 233.778 282.044,232.870 282.010,227.166 282.744 C 224.075 283.142,219.056 283.408,211.246 283.587 C 210.941 283.594,196.091 298.174,178.246 315.986 C 160.095 334.104,144.214 349.622,142.200 351.209 C 140.220 352.769,138.420 354.263,138.200 354.528 C 137.189 355.749,125.925 361.642,122.800 362.586 C 113.885 365.278,112.459 365.567,104.000 366.401 C 93.863 367.399,79.201 364.321,69.646 359.189 C 67.199 357.875,65.082 356.800,64.941 356.800 C 62.769 356.800,43.200 337.231,43.200 335.059 C 43.200 334.918,42.116 332.784,40.790 330.316 C 39.465 327.848,38.129 325.012,37.823 324.015 C 35.329 315.895,34.687 313.330,34.129 309.257 C 33.300 303.206,33.313 296.581,34.166 290.620 C 34.785 286.295,35.289 284.214,37.417 277.200 C 38.505 273.615,44.100 262.964,45.599 261.622 C 45.982 261.280,47.738 259.200,49.502 257.000 C 53.573 251.924,135.171 170.228,140.356 166.036 C 146.028 161.452,147.140 160.676,150.400 159.035 C 154.158 157.142,155.537 156.378,156.789 155.497 C 157.333 155.113,158.233 154.799,158.789 154.799 C 159.345 154.798,160.389 154.438,161.110 153.999 C 161.830 153.559,162.910 153.196,163.510 153.191 C 164.109 153.186,165.375 152.831,166.322 152.401 C 167.270 151.971,170.150 151.349,172.722 151.018 C 175.295 150.687,178.637 150.230,180.148 150.003 C 182.036 149.719,183.852 149.719,185.948 150.001 C 187.627 150.228,191.113 150.675,193.696 150.994 C 196.280 151.314,198.896 151.836,199.512 152.154 C 200.127 152.473,201.524 152.917,202.615 153.142 C 205.270 153.690,209.249 155.135,210.031 155.835 C 210.379 156.146,210.955 156.400,211.311 156.400 C 211.667 156.400,212.444 156.850,213.038 157.400 C 213.631 157.950,214.440 158.400,214.835 158.400 C 215.230 158.400,215.664 158.580,215.800 158.799 C 215.935 159.019,216.981 159.641,218.123 160.183 C 223.769 162.859,233.265 171.878,238.144 179.200 C 239.390 181.070,240.678 182.952,241.005 183.381 C 241.332 183.811,241.600 184.372,241.600 184.627 C 241.600 184.883,241.935 185.521,242.345 186.046 C 242.755 186.571,243.228 187.450,243.397 188.000 C 243.567 188.550,244.041 189.478,244.452 190.062 C 244.864 190.646,245.200 191.436,245.200 191.818 C 245.200 192.404,245.903 194.167,247.176 196.776 C 247.801 198.057,248.690 197.449,254.226 191.960 C 260.795 185.448,260.662 185.771,258.582 181.389 C 250.615 164.600,239.151 152.547,223.000 143.978 C 215.731 140.121,213.587 139.120,211.400 138.560 C 209.500 138.074,208.032 137.617,203.700 136.162 C 202.655 135.811,200.630 135.356,199.200 135.151 C 197.770 134.945,194.800 134.493,192.600 134.145 C 187.030 133.264,180.461 133.118,176.600 133.788 " stroke="none" fill="#0c0c0c" fill-rule="evenodd"></path><path id="path1" d="M0.000 200.000 L 0.000 400.000 200.000 400.000 L 400.000 400.000 400.000 200.000 L 400.000 0.000 200.000 0.000 L 0.000 0.000 0.000 200.000 M311.200 17.830 C 316.212 18.371,318.279 18.827,324.600 20.790 C 325.920 21.200,327.624 21.663,328.387 21.819 C 329.150 21.974,330.050 22.248,330.387 22.426 C 330.724 22.605,332.350 23.404,334.000 24.201 C 338.947 26.592,343.629 29.069,344.109 29.549 C 344.357 29.797,344.802 30.000,345.098 30.000 C 345.393 30.000,346.695 30.855,347.991 31.900 C 349.287 32.945,351.034 34.300,351.874 34.912 C 353.966 36.435,363.591 46.043,365.030 48.045 C 365.674 48.940,367.055 50.728,368.100 52.019 C 369.145 53.309,370.000 54.607,370.000 54.902 C 370.000 55.198,370.203 55.643,370.451 55.891 C 370.931 56.371,373.408 61.053,375.799 66.000 C 376.596 67.650,377.395 69.276,377.574 69.613 C 377.752 69.950,378.026 70.850,378.181 71.613 C 378.337 72.376,378.791 74.080,379.189 75.400 C 379.588 76.720,380.287 79.060,380.743 80.600 C 383.757 90.781,383.465 110.092,380.125 121.400 C 379.345 124.040,378.488 127.100,378.221 128.200 C 377.811 129.893,375.261 135.590,374.014 137.600 C 373.809 137.930,373.368 138.740,373.034 139.400 C 371.572 142.285,370.743 143.854,370.288 144.593 C 369.696 145.555,364.901 151.980,363.119 154.200 C 361.310 156.452,279.641 238.314,273.778 243.752 C 268.544 248.607,264.287 251.770,259.600 254.288 C 251.087 258.861,246.862 260.890,244.838 261.378 C 243.607 261.675,241.931 262.206,241.113 262.559 C 240.295 262.912,239.212 263.200,238.707 263.200 C 238.202 263.200,237.139 263.548,236.345 263.973 C 235.423 264.467,233.403 264.898,230.751 265.166 C 228.468 265.396,224.800 265.876,222.600 266.231 C 218.479 266.897,212.374 266.802,209.000 266.019 C 208.120 265.815,205.420 265.438,203.000 265.180 C 200.580 264.923,198.114 264.462,197.520 264.156 C 196.926 263.850,195.486 263.399,194.320 263.153 C 193.154 262.908,192.008 262.553,191.773 262.365 C 191.538 262.177,190.368 261.814,189.173 261.558 C 184.362 260.529,169.607 252.365,163.400 247.299 C 159.395 244.030,152.900 237.130,150.478 233.570 C 149.665 232.376,148.521 230.769,147.935 229.999 C 145.258 226.484,140.000 216.350,140.000 214.706 C 140.000 214.059,141.696 212.097,145.762 208.038 C 151.563 202.247,152.471 201.680,153.041 203.491 C 153.164 203.881,153.610 204.940,154.032 205.844 C 154.455 206.748,154.800 207.800,154.800 208.182 C 154.800 208.564,155.136 209.354,155.548 209.938 C 155.959 210.522,156.433 211.450,156.603 212.000 C 156.772 212.550,157.245 213.429,157.655 213.954 C 158.065 214.479,158.400 215.117,158.400 215.373 C 158.400 215.628,158.668 216.189,158.995 216.619 C 159.322 217.048,160.610 218.930,161.856 220.800 C 166.723 228.104,176.219 237.121,181.877 239.813 C 183.019 240.357,184.065 240.981,184.200 241.201 C 184.336 241.420,184.797 241.600,185.224 241.600 C 185.651 241.600,186.342 241.942,186.761 242.361 C 187.179 242.779,187.944 243.250,188.461 243.408 C 188.977 243.566,189.670 243.928,190.000 244.213 C 190.770 244.877,194.825 246.330,197.385 246.858 C 198.476 247.083,199.847 247.514,200.430 247.815 C 201.013 248.117,203.090 248.557,205.045 248.793 C 207.000 249.029,210.447 249.491,212.704 249.819 C 216.334 250.347,217.257 250.347,220.704 249.823 C 222.847 249.497,226.280 249.038,228.333 248.803 C 230.386 248.568,232.456 248.120,232.933 247.808 C 233.410 247.496,234.610 247.116,235.600 246.964 C 236.590 246.812,238.068 246.353,238.884 245.944 C 239.700 245.535,240.812 245.200,241.355 245.200 C 241.899 245.200,242.599 244.944,242.911 244.631 C 243.505 244.038,244.258 243.624,249.456 241.033 C 252.149 239.690,254.894 237.970,255.600 237.181 C 255.710 237.058,257.510 235.601,259.600 233.942 C 264.704 229.890,346.220 148.336,350.498 143.000 C 352.262 140.800,354.026 138.714,354.417 138.365 C 355.257 137.615,359.761 129.633,361.281 126.200 C 368.861 109.082,368.001 86.052,359.167 69.605 C 357.865 67.180,356.800 65.082,356.800 64.941 C 356.800 62.733,337.267 43.200,335.059 43.200 C 334.918 43.200,332.820 42.135,330.395 40.833 C 316.034 33.120,297.627 31.393,281.142 36.212 C 274.574 38.132,263.289 43.512,261.806 45.430 C 261.583 45.718,259.780 47.230,257.800 48.789 C 255.777 50.382,239.987 65.811,221.754 84.012 C 203.909 101.825,189.059 116.406,188.754 116.413 C 180.945 116.592,175.925 116.858,172.834 117.256 C 167.129 117.990,166.222 117.956,166.089 117.000 C 165.927 115.825,245.538 36.381,249.200 34.065 C 249.750 33.717,251.193 32.705,252.408 31.816 C 255.034 29.894,255.695 29.478,257.800 28.422 C 258.680 27.981,259.670 27.445,260.000 27.231 C 260.330 27.017,261.140 26.575,261.800 26.250 C 262.460 25.924,264.530 24.894,266.400 23.961 C 268.270 23.028,270.700 22.045,271.800 21.779 C 272.900 21.512,275.996 20.643,278.680 19.848 C 282.236 18.796,285.168 18.242,289.480 17.811 C 292.736 17.485,296.030 17.142,296.800 17.049 C 298.760 16.814,304.834 17.143,311.200 17.830 M192.600 134.145 C 194.800 134.493,197.770 134.945,199.200 135.151 C 200.630 135.356,202.655 135.811,203.700 136.162 C 208.032 137.617,209.500 138.074,211.400 138.560 C 215.902 139.712,228.009 146.329,234.669 151.276 C 243.930 158.156,252.942 169.504,258.582 181.389 C 260.662 185.771,260.795 185.448,254.226 191.960 C 248.690 197.449,247.801 198.057,247.176 196.776 C 245.903 194.167,245.200 192.404,245.200 191.818 C 245.200 191.436,244.864 190.646,244.452 190.062 C 244.041 189.478,243.567 188.550,243.397 188.000 C 243.228 187.450,242.755 186.571,242.345 186.046 C 241.935 185.521,241.600 184.883,241.600 184.627 C 241.600 184.372,241.332 183.811,241.005 183.381 C 240.678 182.952,239.390 181.070,238.144 179.200 C 233.265 171.878,223.769 162.859,218.123 160.183 C 216.981 159.641,215.935 159.019,215.800 158.799 C 215.664 158.580,215.230 158.400,214.835 158.400 C 214.440 158.400,213.631 157.950,213.038 157.400 C 212.444 156.850,211.667 156.400,211.311 156.400 C 210.955 156.400,210.379 156.146,210.031 155.835 C 209.249 155.135,205.270 153.690,202.615 153.142 C 201.524 152.917,200.127 152.473,199.512 152.154 C 198.896 151.836,196.280 151.314,193.696 150.994 C 191.113 150.675,187.627 150.228,185.948 150.001 C 183.852 149.719,182.036 149.719,180.148 150.003 C 178.637 150.230,175.295 150.687,172.722 151.018 C 170.150 151.349,167.270 151.971,166.322 152.401 C 165.375 152.831,164.109 153.186,163.510 153.191 C 162.910 153.196,161.830 153.559,161.110 153.999 C 160.389 154.438,159.345 154.798,158.789 154.799 C 158.233 154.799,157.333 155.113,156.789 155.497 C 155.537 156.378,154.158 157.142,150.400 159.035 C 147.140 160.676,146.028 161.452,140.356 166.036 C 135.171 170.228,53.573 251.924,49.502 257.000 C 47.738 259.200,45.982 261.280,45.599 261.622 C 44.100 262.964,38.505 273.615,37.417 277.200 C 35.289 284.214,34.785 286.295,34.166 290.620 C 33.313 296.581,33.300 303.206,34.129 309.257 C 34.687 313.330,35.329 315.895,37.823 324.015 C 38.129 325.012,39.465 327.848,40.790 330.316 C 42.116 332.784,43.200 334.918,43.200 335.059 C 43.200 337.231,62.769 356.800,64.941 356.800 C 65.082 356.800,67.199 357.875,69.646 359.189 C 79.201 364.321,93.863 367.399,104.000 366.401 C 112.459 365.567,113.885 365.278,122.800 362.586 C 125.925 361.642,137.189 355.749,138.200 354.528 C 138.420 354.263,140.220 352.769,142.200 351.209 C 144.214 349.622,160.095 334.104,178.246 315.986 C 196.091 298.174,210.941 283.594,211.246 283.587 C 219.056 283.408,224.075 283.142,227.166 282.744 C 232.870 282.010,233.778 282.044,233.913 283.000 C 234.021 283.761,158.536 359.627,154.200 363.116 C 149.046 367.263,144.716 370.316,142.200 371.578 C 141.320 372.019,140.330 372.555,140.000 372.769 C 139.670 372.983,138.860 373.425,138.200 373.750 C 137.540 374.076,135.470 375.106,133.600 376.039 C 131.730 376.972,129.300 377.955,128.200 378.221 C 127.100 378.488,124.040 379.345,121.400 380.125 C 110.092 383.465,90.781 383.757,80.600 380.743 C 79.060 380.287,76.720 379.588,75.400 379.189 C 74.080 378.791,72.376 378.337,71.613 378.181 C 70.850 378.026,69.950 377.752,69.613 377.574 C 69.276 377.395,67.650 376.596,66.000 375.799 C 61.053 373.408,56.371 370.931,55.891 370.451 C 55.643 370.203,55.198 370.000,54.902 370.000 C 54.607 370.000,53.309 369.145,52.019 368.100 C 50.728 367.055,48.940 365.674,48.045 365.030 C 46.043 363.591,36.435 353.966,34.912 351.874 C 34.300 351.034,32.945 349.287,31.900 347.991 C 30.855 346.695,30.000 345.393,30.000 345.098 C 30.000 344.802,29.797 344.357,29.549 344.109 C 29.069 343.629,26.592 338.947,24.201 334.000 C 23.404 332.350,22.605 330.724,22.426 330.387 C 22.248 330.050,21.974 329.150,21.819 328.387 C 21.663 327.624,21.209 325.920,20.811 324.600 C 20.412 323.280,19.713 320.940,19.257 319.400 C 16.243 309.219,16.535 289.908,19.875 278.600 C 20.655 275.960,21.512 272.900,21.779 271.800 C 22.189 270.107,24.739 264.410,25.986 262.400 C 26.191 262.070,26.632 261.260,26.966 260.600 C 29.461 255.677,29.619 255.409,31.816 252.408 C 32.705 251.193,33.717 249.750,34.065 249.200 C 35.439 247.027,40.830 241.518,80.376 201.863 C 131.263 150.836,131.804 150.330,140.400 145.712 C 148.913 141.139,153.138 139.110,155.162 138.622 C 156.393 138.325,158.069 137.794,158.887 137.441 C 159.705 137.088,160.788 136.800,161.293 136.800 C 161.798 136.800,162.853 136.457,163.636 136.037 C 164.507 135.570,166.679 135.093,169.230 134.809 C 171.523 134.553,174.840 134.094,176.600 133.788 C 180.461 133.118,187.030 133.264,192.600 134.145 " stroke="none" fill="#fbfbfb" fill-rule="evenodd"></path></g></svg>